<svg version="1.2" xmlns="http://www.w3.org/2000/svg" viewBox="0 0 302 278" width="400" height="368">
	<style>
		.s0 { fill: #ffffff } 
	</style>
	<path id="Layer 1" class="s0" d="m104.63 96.63c0 0 53-7.05 74.75-9.13 21.36-2.05 47.71-20.99 36.62-36.5 10.12-0.69 18.53 14.21 16.25 21.54-2.28 7.33-5.14 25.44-63.25 35.46-58.11 10.02-122.78 1.69-134.51 75.17-10.7-50.18-1.81-81.02 12.51-100.17 14.32-19.15 28.02-43.88 83-54 54.98-10.12 63.14 13.79 62 21-1.14 7.21 2.18 22.28-73 39-7.82 2.67-9.45 3.49-14.37 7.63z"/>
	<path id="Layer 2" class="s0" d="m83 245c0 0-53.66-39.21-18.99-82 46.01-51.25 133.02-6.25 183.99-80 12.29 13.49 44.09 83.06-21 151-61.72 51.78-114.98 22.77-114.98 22.77 0 0-34.01-28.51-2.02-63.77 31.52-34.75 36.95-9.74 100-52-39.97 14-104.51 20.99-115 30-10.49 9.01-38.52 24.97-12 74z"/>
</svg>